<svg width="18" height="20" viewBox="0 0 18 20" fill="none" xmlns="http://www.w3.org/2000/svg">
<path d="M11.9069 15.5385V16.2308C11.9069 16.9652 11.6007 17.6696 11.0556 18.1889C10.5105 18.7082 9.77118 19 9.0003 19C8.22941 19 7.4901 18.7082 6.945 18.1889C6.3999 17.6696 6.09367 16.9652 6.09367 16.2308V15.5385M16.7973 14.1292C15.631 12.7692 14.8076 12.0769 14.8076 8.32764C14.8076 4.89423 12.9674 3.67101 11.4528 3.07692C11.2516 2.99817 11.0622 2.81731 11.0009 2.62043C10.7352 1.75894 9.99037 1 9.0003 1C8.01023 1 7.26495 1.75937 7.00199 2.6213C6.94068 2.82034 6.7513 2.99817 6.5501 3.07692C5.03366 3.67188 3.19522 4.89077 3.19522 8.32764C3.19295 12.0769 2.36956 12.7692 1.20327 14.1292C0.720047 14.6925 1.14332 15.5385 1.98852 15.5385H16.0166C16.8573 15.5385 17.2778 14.69 16.7973 14.1292Z" stroke="#323232" stroke-width="2" stroke-linecap="round" stroke-linejoin="round"/>
</svg>
