<svg width="20" height="20" viewBox="0 0 20 20" fill="none" xmlns="http://www.w3.org/2000/svg">
<path d="M3.33325 12.5C4.71396 12.5 5.83325 11.3807 5.83325 10C5.83325 8.61929 4.71396 7.5 3.33325 7.5C1.95254 7.5 0.833252 8.61929 0.833252 10C0.833252 11.3807 1.95254 12.5 3.33325 12.5Z" fill="#323232"/>
<path d="M3.33325 12.5C4.71396 12.5 5.83325 11.3807 5.83325 10C5.83325 8.61929 4.71396 7.5 3.33325 7.5C1.95254 7.5 0.833252 8.61929 0.833252 10C0.833252 11.3807 1.95254 12.5 3.33325 12.5Z" fill="#323232"/>
<path d="M10 12.5C11.3807 12.5 12.5 11.3807 12.5 10C12.5 8.61929 11.3807 7.5 10 7.5C8.61929 7.5 7.5 8.61929 7.5 10C7.5 11.3807 8.61929 12.5 10 12.5Z" fill="#323232"/>
<path d="M16.6667 12.5C18.0475 12.5 19.1667 11.3807 19.1667 10C19.1667 8.61929 18.0475 7.5 16.6667 7.5C15.286 7.5 14.1667 8.61929 14.1667 10C14.1667 11.3807 15.286 12.5 16.6667 12.5Z" fill="#323232"/>
</svg>
